<svg xmlns="http://www.w3.org/2000/svg" width="27" height="27" viewBox="0 0 27 27" fill="none">
  <path d="M 0 27 L 0 24 L 24 24 L 24 27 L 0 27 L 0 27 M 6 21 C 4.35 21 2.938 20.412 1.763 19.237 C 0.588 18.063 0 16.65 0 15 L 0 0 L 24 0 C 24.825 0 25.531 0.294 26.119 0.881 C 26.706 1.469 27 2.175 27 3 L 27 7.5 C 27 8.325 26.706 9.031 26.119 9.619 C 25.531 10.206 24.825 10.5 24 10.5 L 21 10.5 L 21 15 C 21 16.65 20.412 18.063 19.237 19.237 C 18.063 20.412 16.65 21 15 21 L 6 21 L 6 21 M 6 18 L 15 18 C 15.825 18 16.531 17.706 17.119 17.119 C 17.706 16.531 18 15.825 18 15 L 18 3 L 3 3 L 3 15 C 3 15.825 3.294 16.531 3.881 17.119 C 4.469 17.706 5.175 18 6 18 L 6 18 M 21 7.5 L 24 7.5 L 24 7.5 L 24 7.5 L 24 3 L 24 3 L 24 3 L 21 3 L 21 7.5 L 21 7.5 M 6 18 C 5.175 18 4.469 18 3.881 18 C 3.294 18 3 18 3 18 L 3 18 L 18 18 L 18 18 C 18 18 17.706 18 17.119 18 C 16.531 18 15.825 18 15 18 L 6 18 L 6 18" fill="currentColor" fill-rule="nonzero"></path>
</svg>